<?xml version="1.0" standalone="no"?><!DOCTYPE svg PUBLIC "-//W3C//DTD SVG 1.1//EN" "http://www.w3.org/Graphics/SVG/1.1/DTD/svg11.dtd"><svg height="1024" node-id="1" sillyvg="true" template-height="1024" template-width="1024" version="1.1" viewBox="0 0 1024 1024" width="1024" xmlns="http://www.w3.org/2000/svg" xmlns:xlink="http://www.w3.org/1999/xlink"><defs node-id="139"><linearGradient gradientUnits="objectBoundingBox" id="linearGradient-1" node-id="5" spreadMethod="pad" x1="0.5" x2="0.5" y1="1" y2="-0.41476682"><stop offset="0" stop-color="#ffdc4d" stop-opacity="0"></stop><stop offset="1" stop-color="#f4b538"></stop></linearGradient><linearGradient gradientUnits="objectBoundingBox" id="linearGradient-2" node-id="8" spreadMethod="pad" x1="0.5" x2="0.5" y1="1" y2="-0.41476682"><stop offset="0" stop-color="#ffdc4d" stop-opacity="0"></stop><stop offset="1" stop-color="#f4b538"></stop></linearGradient><linearGradient gradientUnits="objectBoundingBox" id="linearGradient-3" node-id="11" spreadMethod="pad" x1="0.45251164" x2="0.9923633" y1="0.9971597" y2="0.9971597"><stop offset="0" stop-color="#ffdc4d"></stop><stop offset="1" stop-color="#f4b538"></stop></linearGradient><linearGradient gradientUnits="objectBoundingBox" id="linearGradient-4" node-id="14" spreadMethod="pad" x1="0.45251164" x2="0.9923633" y1="0.9971597" y2="0.9971597"><stop offset="0" stop-color="#ffdc4d"></stop><stop offset="1" stop-color="#f4b538"></stop></linearGradient><linearGradient gradientUnits="objectBoundingBox" id="linearGradient-5" node-id="17" spreadMethod="pad" x1="0.45251164" x2="0.9923633" y1="0.9971597" y2="0.9971597"><stop offset="0" stop-color="#ffdc4d"></stop><stop offset="1" stop-color="#f4b538"></stop></linearGradient><linearGradient gradientUnits="objectBoundingBox" id="linearGradient-6" node-id="20" spreadMethod="pad" x1="0.45251164" x2="0.9923633" y1="0.9971597" y2="0.9971597"><stop offset="0" stop-color="#ffdc4d"></stop><stop offset="1" stop-color="#f4b538"></stop></linearGradient><linearGradient gradientUnits="objectBoundingBox" id="linearGradient-7" node-id="23" spreadMethod="pad" x1="0.45251164" x2="0.9923633" y1="0.9971597" y2="0.9971597"><stop offset="0" stop-color="#ffdc4d"></stop><stop offset="1" stop-color="#f4b538"></stop></linearGradient><linearGradient gradientUnits="objectBoundingBox" id="linearGradient-8" node-id="26" spreadMethod="pad" x1="0.45251164" x2="0.9923633" y1="0.9971597" y2="0.9971597"><stop offset="0" stop-color="#ffdc4d"></stop><stop offset="1" stop-color="#f4b538"></stop></linearGradient><linearGradient gradientUnits="objectBoundingBox" id="linearGradient-9" node-id="29" spreadMethod="pad" x1="0.45251164" x2="0.9923633" y1="0.9971597" y2="0.9971597"><stop offset="0" stop-color="#ffdc4d"></stop><stop offset="1" stop-color="#f4b538"></stop></linearGradient><linearGradient gradientUnits="objectBoundingBox" id="linearGradient-10" node-id="32" spreadMethod="pad" x1="-0.09873559" x2="0.9397176" y1="0.47697115" y2="0.5911695"><stop offset="0" stop-color="#ffdc4d"></stop><stop offset="1" stop-color="#f4b538"></stop></linearGradient><linearGradient gradientUnits="objectBoundingBox" id="linearGradient1" node-id="201" spreadMethod="pad" x1="-0.09873559" x2="0.9397176" y1="0.46938622" y2="0.62119746"><stop offset="0" stop-color="#ffdc4d"></stop><stop offset="1" stop-color="#f4b538"></stop></linearGradient><linearGradient gradientUnits="objectBoundingBox" id="linearGradient-11" node-id="35" spreadMethod="pad" x1="-0.09873559" x2="0.9397176" y1="0.46938622" y2="0.62119746"><stop offset="0" stop-color="#ffdc4d"></stop><stop offset="1" stop-color="#f4b538"></stop></linearGradient><linearGradient gradientUnits="objectBoundingBox" id="linearGradient-12" node-id="38" spreadMethod="pad" x1="0.815553" x2="0.9397176" y1="0.049061716" y2="0.6989662"><stop offset="0" stop-color="#ffdc4d"></stop><stop offset="1" stop-color="#f4b538"></stop></linearGradient><linearGradient gradientUnits="objectBoundingBox" id="linearGradient-13" node-id="41" spreadMethod="pad" x1="0.49999997" x2="0.49999997" y1="-0.19003876" y2="0.99999994"><stop offset="0" stop-color="#ffcda5"></stop><stop offset="1" stop-color="#ffe8d1"></stop></linearGradient><linearGradient gradientUnits="objectBoundingBox" id="linearGradient-14" node-id="44" spreadMethod="pad" x1="0.49999997" x2="0.49999997" y1="0" y2="0.99999994"><stop offset="0" stop-color="#fff2df"></stop><stop offset="1" stop-color="#fee0bc"></stop></linearGradient><linearGradient gradientUnits="objectBoundingBox" id="linearGradient-15" node-id="47" spreadMethod="pad" x1="0.204142" x2="0.64350975" y1="0.23445842" y2="0.99999994"><stop offset="0" stop-color="#fff2df"></stop><stop offset="1" stop-color="#fee0bc"></stop></linearGradient><linearGradient gradientUnits="objectBoundingBox" id="linearGradient-16" node-id="50" spreadMethod="pad" x1="0.49999997" x2="0.49999997" y1="0" y2="0.99999994"><stop offset="0" stop-color="#fff2df"></stop><stop offset="1" stop-color="#fee0bc"></stop></linearGradient><linearGradient gradientUnits="objectBoundingBox" id="linearGradient-17" node-id="53" spreadMethod="pad" x1="-0.08680926" x2="1.2003692" y1="0.6659434" y2="0.49999997"><stop offset="0" stop-color="#41b093"></stop><stop offset="1" stop-color="#184657"></stop></linearGradient><linearGradient gradientUnits="objectBoundingBox" id="linearGradient-18" node-id="56" spreadMethod="pad" x1="0.8627502" x2="-0.000000000000027057473" y1="-0.02805049" y2="-0.02805049"><stop offset="0" stop-color="#1d181c"></stop><stop offset="0.3" stop-color="#2c2422"></stop><stop offset="0.5" stop-color="#42352c"></stop><stop offset="0.7" stop-color="#57352c"></stop><stop offset="1" stop-color="#923629"></stop></linearGradient><linearGradient gradientUnits="objectBoundingBox" id="linearGradient-19" node-id="62" spreadMethod="pad" x1="0.23878232" x2="0.6918409" y1="0.3999619" y2="0.8960434"><stop offset="0" stop-color="#ffdc4d"></stop><stop offset="1" stop-color="#f4b538"></stop></linearGradient><linearGradient gradientUnits="objectBoundingBox" id="linearGradient-20" node-id="65" spreadMethod="pad" x1="0.26389214" x2="0.7361077" y1="-0.0000000000000017763567" y2="0.99999994"><stop offset="0" stop-color="#ffdc4d"></stop><stop offset="1" stop-color="#f4b538"></stop></linearGradient><linearGradient gradientUnits="objectBoundingBox" id="linearGradient-21" node-id="68" spreadMethod="pad" x1="-0.09873559" x2="0.9397176" y1="0.4582277" y2="0.66537327"><stop offset="0" stop-color="#ffdc4d"></stop><stop offset="1" stop-color="#f4b538"></stop></linearGradient><linearGradient gradientUnits="objectBoundingBox" id="linearGradient-22" node-id="71" spreadMethod="pad" x1="0.89443105" x2="0" y1="0.3846027" y2="0.8505117"><stop offset="0" stop-color="#f4b538"></stop><stop offset="1" stop-color="#ffdc4d"></stop></linearGradient><linearGradient gradientUnits="objectBoundingBox" id="linearGradient-23" node-id="74" spreadMethod="pad" x1="0.5" x2="0.5" y1="0" y2="1"><stop offset="0" stop-color="#ffdc4d"></stop><stop offset="1" stop-color="#f4b538"></stop></linearGradient><linearGradient gradientUnits="objectBoundingBox" id="linearGradient-24" node-id="77" spreadMethod="pad" x1="0.89443105" x2="0" y1="0.44633794" y2="0.662995"><stop offset="0" stop-color="#f4b538"></stop><stop offset="1" stop-color="#ffdc4d"></stop></linearGradient><linearGradient gradientUnits="objectBoundingBox" id="linearGradient-25" node-id="80" spreadMethod="pad" x1="0.5" x2="0.5" y1="0" y2="1"><stop offset="0" stop-color="#ffdc4d"></stop><stop offset="1" stop-color="#f4b538"></stop></linearGradient><linearGradient gradientUnits="objectBoundingBox" id="linearGradient-26" node-id="83" spreadMethod="pad" x1="0.89443105" x2="0" y1="0.44633725" y2="0.662997"><stop offset="0" stop-color="#f4b538"></stop><stop offset="1" stop-color="#ffdc4d"></stop></linearGradient><linearGradient gradientUnits="objectBoundingBox" id="linearGradient-27" node-id="86" spreadMethod="pad" x1="0.89443105" x2="0" y1="0.48209393" y2="0.5543885"><stop offset="0" stop-color="#f4b538"></stop><stop offset="1" stop-color="#ffdc4d"></stop></linearGradient><linearGradient gradientUnits="objectBoundingBox" id="linearGradient-28" node-id="89" spreadMethod="pad" x1="-0.26255283" x2="1.3051119" y1="0.45163804" y2="0.51287335"><stop offset="0" stop-color="#ffdc4d"></stop><stop offset="1" stop-color="#f4b538"></stop></linearGradient></defs><path d="M 0.00 0.00 L 1024.00 0.00 L 1024.00 1024.00 L 0.00 1024.00 Z" fill="none" id="矩形" node-id="93" stroke="none" target-height="1024" target-width="1024" target-x="0" target-y="0"></path><g node-id="321"><path d="M 50.73 621.98 C 42.58 586.77 -10.54 357.46 139.63 325.93 C 289.79 294.40 378.51 331.12 444.49 266.92 C 510.47 202.72 526.92 213.26 581.12 217.50 C 635.31 221.75 698.12 175.41 719.23 161.49 C 740.33 147.57 930.89 58.00 979.61 325.93 C 987.31 441.76 993.71 567.43 939.80 615.03 C 885.90 662.64 940.79 705.38 979.61 710.13 C 1018.44 714.88 961.46 796.21 871.79 831.72 C 812.17 858.49 426.51 935.22 195.56 856.34 C 84.04 808.55 58.89 657.19 50.73 621.98 Z" fill="#f1bc01" fill-opacity="0.05" fill-rule="evenodd" group-id="1" id="路径-58" node-id="94" stroke="none" target-height="877.2183" target-width="1028.973" target-x="-10.535249" target-y="58.00492"></path></g><path d="M 887.00 177.31 C 887.00 188.25 876.81 197.00 863.94 197.00 L 792.60 197.00 C 779.73 196.12 769.00 187.81 769.00 176.44 C 769.00 169.00 773.83 162.44 780.80 158.94 C 780.26 157.62 779.73 156.31 779.73 155.00 C 779.73 147.56 786.70 141.00 795.82 141.00 C 799.57 141.00 802.79 142.31 805.47 144.06 C 811.91 134.00 823.71 127.00 837.65 127.00 C 856.96 127.00 872.52 140.56 872.52 157.19 L 872.52 158.94 C 881.10 162.00 887.00 169.00 887.00 177.31 Z" fill="url(#linearGradient-1)" fill-rule="evenodd" id="路径" node-id="95" stroke="none" target-height="70" target-width="118" target-x="769" target-y="127"></path><path d="M 276.00 348.13 C 276.00 362.50 261.40 374.00 242.97 374.00 L 140.80 374.00 C 122.36 372.85 107.00 361.93 107.00 346.97 C 107.00 337.20 113.91 328.57 123.90 323.98 C 123.13 322.25 122.36 320.52 122.36 318.80 C 122.36 309.02 132.35 300.40 145.41 300.40 C 150.79 300.40 155.40 302.12 159.24 304.43 C 168.45 291.20 185.35 282.00 205.33 282.00 C 232.98 282.00 255.26 299.82 255.26 321.68 L 255.26 323.98 C 267.55 328.00 276.00 337.20 276.00 348.13 Z" fill="url(#linearGradient-2)" fill-rule="evenodd" id="路径" node-id="96" stroke="none" target-height="92" target-width="169" target-x="107" target-y="282"></path><g node-id="322"><path d="M 814.13 798.34 C 811.73 787.35 804.69 779.67 793.02 775.29 C 779.70 771.00 772.41 765.90 780.74 762.20 C 787.78 761.64 802.79 756.15 814.13 788.96 C 814.92 792.14 814.92 795.27 814.13 798.34 Z" fill="url(#linearGradient-3)" fill-rule="evenodd" group-id="2" id="路径-43" node-id="98" stroke="none" target-height="42.190857" target-width="42.51831" target-x="772.40576" target-y="756.15076"></path><path d="M 814.10 799.76 C 807.14 773.64 799.24 754.57 790.40 742.55 C 783.90 734.34 784.36 722.59 790.40 719.93 C 796.58 719.24 807.98 718.17 816.56 763.18 C 817.10 766.28 820.12 784.39 816.56 796.08 C 816.03 797.68 815.21 798.91 814.10 799.76 Z" fill="url(#linearGradient-4)" fill-rule="evenodd" group-id="2" id="路径-44" node-id="99" stroke="none" target-height="81.58722" target-width="36.21753" target-x="783.9027" target-y="718.17053"></path><path d="M 815.71 793.53 C 818.85 781.89 818.45 766.72 814.51 747.99 C 808.49 729.84 798.22 707.51 816.95 707.00 C 824.55 708.04 833.73 716.03 830.26 755.87 C 828.14 771.94 824.47 781.44 820.61 793.53 C 819.27 794.28 817.63 794.28 815.71 793.53 Z" fill="url(#linearGradient-5)" fill-rule="evenodd" group-id="2" id="路径-45" node-id="100" stroke="none" target-height="87.28137" target-width="35.509583" target-x="798.2155" target-y="707"></path><path d="M 819.14 798.34 C 817.88 765.28 823.89 741.55 837.19 727.16 C 840.78 722.35 854.43 717.85 854.38 732.92 C 852.95 739.41 849.90 753.25 832.31 774.36 C 826.52 781.98 822.71 793.12 822.67 795.73 C 822.65 797.47 821.47 798.34 819.14 798.34 Z" fill="url(#linearGradient-6)" fill-rule="evenodd" group-id="2" id="路径-46" node-id="101" stroke="none" target-height="80.4942" target-width="36.551636" target-x="817.8788" target-y="717.8474"></path><path d="M 751.00 802.50 C 764.17 800.06 771.43 798.00 772.79 796.29 C 774.83 793.74 792.75 782.78 803.92 792.01 C 806.36 788.91 814.16 786.49 818.62 792.01 C 820.67 783.30 833.41 777.72 838.95 778.62 C 845.20 778.14 863.62 778.34 865.00 802.50 C 859.97 802.62 821.97 802.62 751.00 802.50 Z" fill="url(#linearGradient-7)" fill-rule="evenodd" group-id="2" id="路径-47" node-id="102" stroke="none" target-height="24.903137" target-width="114" target-x="751" target-y="777.716"></path></g><g node-id="323"><path d="M 209.16 807.23 C 209.16 809.24 203.93 810.88 197.47 810.88 C 191.02 810.88 185.78 809.24 185.78 807.23 C 185.78 805.21 191.02 803.57 197.47 803.57 C 203.93 803.57 209.16 805.21 209.16 807.23 Z" fill="#825852" fill-rule="evenodd" group-id="3" id="椭圆形" node-id="104" stroke="none" target-height="7.305359" target-width="23.377167" target-x="185.7844" target-y="803.57465"></path><path d="M 185.06 805.80 C 186.65 779.22 193.32 763.83 205.07 759.64 C 209.69 759.03 214.84 758.10 211.25 764.09 C 207.66 770.08 198.04 767.75 188.41 805.78 C 187.54 807.41 186.43 807.41 185.06 805.80 Z" fill="url(#linearGradient-8)" fill-rule="evenodd" group-id="3" id="路径-42" node-id="105" stroke="none" target-height="49.31378" target-width="29.78122" target-x="185.06271" target-y="758.09845"></path><path d="M 184.84 805.46 C 181.72 780.64 179.16 765.02 177.17 758.63 C 174.19 749.03 167.83 730.55 181.06 737.54 C 194.29 744.53 195.85 780.38 189.74 802.20 C 187.84 807.72 186.20 808.81 184.84 805.46 Z" fill="url(#linearGradient-9)" fill-rule="evenodd" group-id="3" id="路径-41" node-id="106" stroke="none" target-height="78.253784" target-width="28.022232" target-x="167.8291" target-y="730.5539"></path></g><g node-id="324"><path d="M 694.35 694.37 L 746.80 823.58 C 750.44 828.21 752.57 834.07 752.46 840.42 C 752.21 855.05 740.14 866.71 725.50 866.45 C 710.87 866.20 699.21 854.13 699.47 839.50 C 699.49 838.27 699.59 837.07 699.78 835.89 L 407.54 902.26 C 411.34 906.93 413.57 912.93 413.46 919.42 C 413.21 934.05 401.14 945.71 386.50 945.45 C 371.87 945.20 360.21 933.13 360.47 918.50 C 360.72 903.86 372.79 892.21 387.43 892.46 C 388.89 892.49 390.32 892.63 391.71 892.88 L 439.14 881.92 L 274.98 847.46 L 262.99 849.51 C 267.72 854.39 270.59 861.08 270.46 868.42 C 270.21 883.05 258.14 894.71 243.50 894.45 C 228.87 894.20 217.21 882.13 217.47 867.50 C 217.71 853.53 228.72 842.27 242.45 841.50 L 542.40 788.26 L 523.50 709.10 L 535.45 707.11 L 554.72 786.03 L 575.12 788.30 L 599.37 704.37 L 610.69 703.92 L 586.05 789.51 L 722.90 804.75 L 679.40 696.37 L 694.35 694.37 Z M 374.53 830.51 L 304.91 842.37 L 465.38 875.85 L 540.36 858.52 L 374.53 830.51 Z M 574.39 830.05 L 568.03 852.12 L 625.88 838.75 L 574.39 830.05 Z M 475.38 813.32 L 405.36 825.25 L 557.10 850.68 L 563.59 828.22 L 562.48 828.04 C 558.50 837.71 548.98 844.47 537.94 844.46 L 537.50 844.45 C 523.52 844.21 512.25 833.18 511.50 819.43 L 475.38 813.32 Z M 582.58 801.59 L 577.29 819.97 L 652.55 832.58 L 709.11 819.51 C 711.02 817.93 713.16 816.62 715.46 815.62 L 582.58 801.59 Z M 426.76 716.91 L 385.57 814.94 L 373.00 816.98 L 414.59 718.13 L 426.76 716.91 Z M 557.89 798.99 L 557.95 799.26 L 556.92 799.43 C 561.56 804.19 564.43 810.69 564.46 817.83 L 566.49 818.17 L 571.62 800.44 L 557.89 798.99 Z M 513.94 806.76 L 506.23 808.07 L 512.95 809.20 C 513.24 808.36 513.57 807.55 513.94 806.76 Z" fill="url(#linearGradient-10)" fill-rule="evenodd" group-id="4" id="形状结合" node-id="108" stroke="none" target-height="251.34027" target-width="535.35815" target-x="217.21376" target-y="694.3695"></path><path d="M 770.47 469.33 L 791.27 442.87 L 839.74 436.51 C 848.42 428.90 847.68 422.90 837.52 418.49 C 823.22 420.26 804.32 422.77 780.82 426.02 L 751.07 464.27 L 770.47 469.33 Z" fill="url(#linearGradient1)" fill-rule="evenodd" group-id="4" id="路径-37" node-id="109" stroke="none" target-height="50.837524" target-width="97.34497" target-x="751.07446" target-y="418.49448"></path><path d="M 609.47 434.33 L 630.27 407.87 L 678.74 401.51 C 687.42 393.90 686.68 387.90 676.52 383.49 C 662.22 385.26 643.32 387.77 619.82 391.02 L 590.07 429.27 L 609.47 434.33 Z" fill="url(#linearGradient-11)" fill-rule="evenodd" group-id="4" id="路径-37备份-2" node-id="110" stroke="none" target-height="50.837524" target-width="97.34497" target-x="590.07446" target-y="383.49448"></path><path d="M 226.59 527.48 L 592.44 424.35 L 588.87 622.62 L 251.84 676.45 Z" fill="url(#linearGradient-12)" fill-rule="evenodd" group-id="4" id="路径-34" node-id="111" stroke="none" target-height="252.094" target-width="365.85556" target-x="226.5867" target-y="424.35266"></path><g node-id="326"><path d="M 511.50 598.78 C 511.21 615.62 468.44 628.53 415.99 627.62 C 363.53 626.70 321.24 612.31 321.53 595.47 C 321.83 578.62 364.59 565.71 417.05 566.63 C 469.51 567.54 511.80 581.94 511.50 598.78 Z" fill="#fee3b1" fill-rule="evenodd" group-id="4,6" id="椭圆形" node-id="113" stroke="none" target-height="62.822083" target-width="190.55899" target-x="321.2383" target-y="565.7129"></path><path d="M 345.68 501.37 L 333.67 522.23 C 333.67 522.23 332.54 524.12 332.80 525.94 C 333.07 527.84 334.75 529.28 334.75 529.28 L 369.10 549.79 L 369.64 532.36 L 354.94 523.02 L 366.08 506.27 L 345.68 501.37 Z" fill="#fee0bc" fill-rule="evenodd" group-id="4,6" id="胳膊-path" node-id="114" stroke="none" target-height="48.415985" target-width="37.105865" target-x="332.53503" target-y="501.37308"></path><path d="M 491.66 503.92 L 502.94 525.21 C 502.94 525.21 504.00 527.14 503.67 528.95 C 503.33 530.85 501.61 532.22 501.61 532.22 L 466.65 552.49 L 466.63 534.09 L 481.64 525.26 L 471.09 508.11 L 491.66 503.92 Z" fill="#fee0bc" fill-rule="evenodd" group-id="4,6" id="胳膊-path" node-id="115" stroke="none" target-height="48.570984" target-width="37.37143" target-x="466.62546" target-y="503.92108"></path><g node-id="333"><path d="M 407.22 442.44 L 427.21 442.79 L 426.86 462.78 L 406.87 462.44 Z" fill="url(#linearGradient-13)" fill-rule="evenodd" group-id="4,6,13" id="矩形" node-id="117" stroke="none" target-height="20.346008" target-width="20.346008" target-x="406.867" target-y="442.43805"></path><g node-id="334"><path d="M 446.58 422.12 C 446.32 437.03 433.35 448.90 417.61 448.62 C 401.87 448.35 389.33 436.04 389.59 421.13 C 389.85 406.22 402.81 394.35 418.55 394.63 C 434.29 394.90 446.84 407.21 446.58 422.12 Z" fill="url(#linearGradient-14)" fill-rule="evenodd" group-id="4,6,13,14" id="椭圆形" node-id="119" stroke="none" target-height="54.5412" target-width="57.51181" target-x="389.32504" target-y="394.35388"></path><path d="M 452.55 423.73 C 452.49 427.32 450.20 430.19 447.44 430.14 C 444.68 430.09 442.49 427.14 442.55 423.55 C 442.61 419.96 444.90 417.09 447.66 417.14 C 450.42 417.19 452.61 420.14 452.55 423.73 Z" fill="url(#linearGradient-15)" fill-rule="evenodd" group-id="4,6,13,14" id="椭圆形" node-id="120" stroke="none" target-height="13.094421" target-width="10.123779" target-x="442.4884" target-y="417.0919"></path><g node-id="335"><path d="M 393.25 425.81 C 393.70 429.48 391.86 432.72 389.14 433.05 C 386.43 433.39 383.86 430.69 383.41 427.02 C 382.96 423.36 384.80 420.11 387.52 419.78 C 390.23 419.45 392.80 422.15 393.25 425.81 Z" fill="url(#linearGradient-16)" fill-rule="evenodd" group-id="4,6,13,14,15" id="椭圆形备份" node-id="121" stroke="none" target-height="13.939392" target-width="10.735901" target-x="382.962" target-y="419.44684"></path></g><path d="M 392.51 427.18 C 388.63 425.09 385.89 420.84 384.26 414.43 C 381.88 399.10 389.48 384.84 394.45 382.04 C 399.41 379.24 402.25 377.69 404.83 379.24 C 406.99 376.04 417.74 370.31 434.03 376.24 C 450.31 382.16 454.78 399.00 453.73 407.48 C 453.03 413.14 450.59 419.05 446.40 425.23 L 446.55 416.75 C 445.53 421.13 444.27 423.94 442.77 425.17 C 443.49 421.87 443.76 417.82 443.07 415.95 C 442.37 414.09 442.26 418.10 441.17 421.04 C 437.11 415.20 431.74 411.01 425.06 408.47 L 424.29 410.17 C 418.15 403.71 414.23 399.85 412.53 398.59 C 409.98 396.69 408.26 396.84 407.57 399.27 C 406.73 398.69 404.59 396.85 403.42 399.98 C 401.61 403.91 398.91 409.12 397.84 419.99 C 396.13 416.85 394.80 420.27 395.23 424.93 C 394.54 424.81 393.85 424.58 393.16 424.24 L 392.51 427.18 Z" fill="#000000" fill-rule="evenodd" group-id="4,6,13,14" id="路径-67" node-id="122" stroke="none" target-height="56.869537" target-width="72.89905" target-x="381.8798" target-y="370.30948"></path></g></g><path d="M 407.07 450.44 C 408.80 451.49 412.03 454.44 416.76 459.29 C 422.87 453.61 425.93 450.77 425.93 450.77 L 450.86 455.31 C 450.86 455.31 456.69 456.40 460.20 460.00 C 469.90 469.95 485.93 489.23 485.93 489.23 L 497.19 502.18 C 494.27 505.57 490.91 508.56 487.19 511.05 C 481.36 514.90 473.54 517.80 473.54 517.80 L 464.68 509.01 L 463.63 569.44 L 371.82 567.84 L 372.89 506.59 L 367.44 513.07 C 367.44 513.07 359.58 511.39 352.77 507.88 C 348.25 505.44 344.04 502.47 340.22 499.03 L 367.85 466.20 C 369.56 464.49 371.37 462.87 373.26 461.36 C 374.98 460.04 376.78 458.84 378.66 457.76 C 380.94 456.82 383.28 456.03 385.67 455.41 C 394.07 453.25 407.07 450.44 407.07 450.44 Z" fill="url(#linearGradient-17)" fill-rule="nonzero" group-id="4,6" id="衣服" node-id="123" stroke="none" target-height="119.0051" target-width="156.96896" target-x="340.21817" target-y="450.4368"></path><path d="M 472.42 546.74 C 472.42 546.74 494.99 537.74 501.14 558.33 C 506.56 576.49 487.33 579.95 487.33 579.95 L 487.33 579.95 L 472.79 582.39 L 466.13 602.49 L 415.05 592.07 L 363.59 600.70 L 357.63 580.36 L 343.34 577.45 C 343.34 577.45 324.26 573.32 330.30 555.37 C 337.16 535.02 359.37 544.79 359.37 544.79 L 415.56 560.94 L 472.42 546.74 Z" fill="url(#linearGradient-18)" fill-rule="nonzero" group-id="4,6" id="裤子" node-id="124" stroke="none" target-height="67.472595" target-width="182.29782" target-x="324.2587" target-y="535.01794"></path><path d="M 358.29 585.61 L 352.24 585.90 C 350.37 585.97 348.49 585.94 346.62 585.80 C 342.75 585.57 339.16 585.50 339.16 585.50 C 339.16 585.50 331.97 585.11 330.44 587.19 C 327.50 591.20 328.85 599.47 328.85 599.47 C 328.85 599.47 329.70 602.89 331.38 604.46 C 332.80 605.79 335.46 604.86 335.46 604.86 C 335.46 604.86 340.25 603.67 345.34 602.65 C 352.25 601.27 355.20 600.82 355.20 600.82 L 362.48 598.94 L 358.29 585.61 Z M 471.25 587.58 L 477.45 588.09 C 479.38 588.22 481.31 588.26 483.25 588.19 C 487.23 588.09 490.92 588.15 490.92 588.15 C 490.92 588.15 498.33 588.01 499.84 590.15 C 502.72 594.25 501.03 602.47 501.03 602.47 C 501.03 602.47 500.04 605.87 498.26 607.38 C 496.75 608.65 494.05 607.63 494.05 607.63 C 494.05 607.63 489.17 606.27 483.96 605.07 C 476.90 603.45 473.88 602.90 473.88 602.90 L 466.46 600.76 L 471.25 587.58 Z" fill="#fee0bc" fill-rule="evenodd" group-id="4,6" id="脚" node-id="125" stroke="none" target-height="23.540955" target-width="175.2236" target-x="327.4994" target-y="585.1098"></path><path d="M 372.59 474.84 L 461.69 476.39 C 464.42 476.44 466.59 478.56 466.55 481.13 L 465.41 546.47 L 366.42 544.74 L 367.56 479.40 C 367.61 476.83 369.86 474.79 372.59 474.84 Z M 368.26 544.77 L 464.57 546.45 C 465.94 546.48 467.19 547.36 467.86 548.76 C 468.52 550.17 468.49 551.88 467.78 553.26 C 467.07 554.64 465.78 555.48 464.41 555.45 L 368.11 553.77 C 365.99 553.74 364.30 551.69 364.35 549.21 C 364.39 546.72 366.14 544.74 368.26 544.77 L 368.26 544.77 Z" fill="#825852" fill-rule="evenodd" group-id="4,6" id="电脑" node-id="126" stroke="none" target-height="80.68643" target-width="104.21396" target-x="364.30276" target-y="474.791"></path></g><path d="M 592.28 424.01 L 588.23 624.35 L 685.15 696.67 L 769.98 468.21 Z" fill="url(#linearGradient-19)" fill-rule="evenodd" group-id="4" id="路径-35" node-id="127" stroke="none" target-height="272.6622" target-width="181.75256" target-x="588.2256" target-y="424.0098"></path><path d="M 228.41 525.00 L 242.19 681.05 L 358.98 722.31 L 361.92 554.19 Z" fill="url(#linearGradient-20)" fill-rule="evenodd" group-id="4" id="路径-28" node-id="128" stroke="none" target-height="197.3089" target-width="133.51083" target-x="228.40543" target-y="525"></path><path d="M 361.96 553.87 L 770.53 467.10 L 704.39 695.06 L 359.00 722.96 Z" fill="url(#linearGradient-21)" fill-rule="evenodd" group-id="4" id="路径-29" node-id="129" stroke="none" target-height="255.85678" target-width="411.52795" target-x="359.00415" target-y="467.10312"></path></g><g node-id="325"><g node-id="327"><path d="M 237.46 509.56 C 181.94 539.24 134.02 551.45 93.71 546.18 C 61.54 541.34 56.00 506.85 80.29 496.55 C 104.57 486.24 125.83 495.38 135.98 519.30 C 146.13 543.21 142.08 577.77 124.16 599.88" fill="none" group-id="5,7" id="路径-20" node-id="131" stroke="url(#linearGradient-22)" stroke-linecap="round" stroke-width="2" target-height="113.64227" target-width="181.46045" target-x="56.004356" target-y="486.24"></path></g><g node-id="328"><path d="M 88.17 637.52 C 76.55 628.35 65.70 631.06 55.60 645.64 C 50.36 653.75 48.41 665.12 38.28 667.65 C 72.81 670.81 89.44 660.76 88.17 637.52 Z" fill="url(#linearGradient-23)" fill-rule="evenodd" group-id="5,8" id="路径-18" node-id="132" stroke="none" target-height="42.454346" target-width="51.16648" target-x="38.276688" target-y="628.3513"></path></g><g node-id="329"><path d="M 99.73 625.00 C 98.05 632.16 86.06 641.89 63.75 654.19" fill="none" group-id="5,9" id="路径-19" node-id="133" stroke="url(#linearGradient-24)" stroke-linecap="round" stroke-width="2" target-height="29.188599" target-width="35.982536" target-x="63.74568" target-y="625"></path></g><g node-id="330"><path d="M 547.38 363.65 C 536.43 353.69 525.41 355.63 514.32 369.48 C 508.53 377.20 505.79 388.41 495.51 390.22 C 529.73 395.78 547.03 386.92 547.38 363.65 Z" fill="url(#linearGradient-25)" fill-rule="evenodd" group-id="5,10" id="路径-18备份" node-id="134" stroke="none" target-height="42.089813" target-width="51.878723" target-x="495.50537" target-y="353.69034"></path></g><g node-id="331"><path d="M 560.34 353.00 C 558.17 360.02 545.52 368.89 522.41 379.61" fill="none" group-id="5,11" id="路径-19备份" node-id="135" stroke="url(#linearGradient-26)" stroke-linecap="round" stroke-width="2" target-height="26.607788" target-width="37.931213" target-x="522.4065" target-y="353"></path></g><path d="M 565.24 309.00 C 540.13 327.36 518.38 338.50 499.97 342.41" fill="none" group-id="5,12" id="路径-22" node-id="136" stroke="url(#linearGradient-27)" stroke-linecap="round" stroke-width="2" target-height="33.408142" target-width="65.264404" target-x="499.97296" target-y="309"></path></g><path d="M 632.50 244.00 L 632.50 243.90 C 627.16 228.61 609.76 221.42 595.00 223.64 C 605.95 216.73 624.01 214.89 632.50 225.48 L 632.50 225.58 C 640.97 215.08 659.14 216.83 670.00 223.73 C 655.25 221.61 637.85 228.80 632.50 243.99 L 632.50 244.00 Z M 716.00 232.00 L 716.00 231.94 C 712.29 221.35 700.24 216.38 690.00 217.90 C 697.59 213.12 710.12 211.85 716.00 219.18 L 716.00 219.25 C 721.88 211.98 734.47 213.19 742.00 217.97 C 731.76 216.50 719.71 221.48 716.00 232.00 L 716.00 232.00 Z M 681.00 197.00 L 681.00 196.94 C 677.29 186.35 665.24 181.38 655.00 182.90 C 662.59 178.12 675.12 176.85 681.00 184.18 L 681.00 184.25 C 686.88 176.98 699.47 178.19 707.00 182.97 C 696.76 181.50 684.71 186.48 681.00 197.00 L 681.00 197.00 Z M 786.00 237.00 L 786.00 236.96 C 783.44 229.90 775.08 226.58 768.00 227.60 C 773.25 224.42 781.93 223.56 786.00 228.45 L 786.00 228.50 C 790.08 223.65 798.79 224.46 804.00 227.65 C 796.92 226.66 788.56 229.99 786.00 237.00 Z" fill="url(#linearGradient-28)" fill-rule="evenodd" id="形状结合" node-id="137" stroke="none" target-height="67.152374" target-width="209" target-x="595" target-y="176.84763"></path></svg>
