<svg xmlns="http://www.w3.org/2000/svg" style="display:none">
  <symbol id="back" viewBox="0 0 24 24"><path d="M15 18l-6-6 6-6" fill="none" stroke="currentColor" stroke-width="2.3" stroke-linecap="round" stroke-linejoin="round"/></symbol>
  <symbol id="search" viewBox="0 0 24 24"><path d="M10.8 18a7.2 7.2 0 1 1 0-14.4 7.2 7.2 0 0 1 0 14.4Zm5.2-2 4.2 4.2" fill="none" stroke="currentColor" stroke-width="2.1" stroke-linecap="round"/></symbol>
  <symbol id="more" viewBox="0 0 24 24"><circle cx="5" cy="12" r="1.8"/><circle cx="12" cy="12" r="1.8"/><circle cx="19" cy="12" r="1.8"/></symbol>
  <symbol id="filter" viewBox="0 0 24 24"><path d="M4 6h16M7 12h10M10 18h4" fill="none" stroke="currentColor" stroke-width="2" stroke-linecap="round"/></symbol>
  <symbol id="shop" viewBox="0 0 24 24"><path d="M5 10h14l-1-5H6l-1 5Zm1 0v9h12v-9M9 19v-5h6v5" fill="none" stroke="currentColor" stroke-width="2" stroke-linejoin="round"/></symbol>
  <symbol id="truck" viewBox="0 0 24 24"><path d="M3 7h11v9H3V7Zm11 3h4l3 3v3h-7v-6ZM7 19a2 2 0 1 0 0-4 2 2 0 0 0 0 4Zm11 0a2 2 0 1 0 0-4 2 2 0 0 0 0 4Z" fill="none" stroke="currentColor" stroke-width="1.8" stroke-linejoin="round"/></symbol>
  <symbol id="location" viewBox="0 0 24 24"><path d="M12 21s7-5.4 7-11a7 7 0 0 0-14 0c0 5.6 7 11 7 11Zm0-8a3 3 0 1 0 0-6 3 3 0 0 0 0 6Z" fill="none" stroke="currentColor" stroke-width="1.9" stroke-linejoin="round"/></symbol>
  <symbol id="phone" viewBox="0 0 24 24"><path d="M8 4h8a2 2 0 0 1 2 2v12a2 2 0 0 1-2 2H8a2 2 0 0 1-2-2V6a2 2 0 0 1 2-2Zm3 14h2" fill="none" stroke="currentColor" stroke-width="2" stroke-linecap="round"/></symbol>
  <symbol id="message" viewBox="0 0 24 24"><path d="M4 5h16v11H8l-4 4V5Z" fill="none" stroke="currentColor" stroke-width="2" stroke-linejoin="round"/></symbol>
  <symbol id="camera" viewBox="0 0 24 24"><path d="M8 7l1.5-2h5L16 7h4v12H4V7h4Zm4 9a4 4 0 1 0 0-8 4 4 0 0 0 0 8Z" fill="none" stroke="currentColor" stroke-width="1.8" stroke-linejoin="round"/></symbol>
  <symbol id="coupon" viewBox="0 0 24 24"><path d="M4 7h16v4a2 2 0 0 0 0 4v4H4v-4a2 2 0 0 0 0-4V7Zm7 2v10" fill="none" stroke="currentColor" stroke-width="1.8" stroke-linejoin="round"/></symbol>
  <symbol id="heart" viewBox="0 0 24 24"><path d="M12 20S4.5 15.8 4.5 9.8A4.2 4.2 0 0 1 12 7a4.2 4.2 0 0 1 7.5 2.8C19.5 15.8 12 20 12 20Z" fill="none" stroke="currentColor" stroke-width="1.9" stroke-linejoin="round"/></symbol>
  <symbol id="star" viewBox="0 0 24 24"><path d="m12 3 2.8 5.7 6.2.9-4.5 4.4 1.1 6.2-5.6-3-5.6 3 1.1-6.2L3 9.6l6.2-.9L12 3Z" fill="none" stroke="currentColor" stroke-width="1.8" stroke-linejoin="round"/></symbol>
  <symbol id="edit" viewBox="0 0 24 24"><path d="M4 16.5V20h3.5L18.1 9.4l-3.5-3.5L4 16.5Zm12-12 3.5 3.5" fill="none" stroke="currentColor" stroke-width="1.9" stroke-linejoin="round"/></symbol>
  <symbol id="check" viewBox="0 0 24 24"><path d="m5 12.5 4.2 4.2L19 7" fill="none" stroke="currentColor" stroke-width="2.4" stroke-linecap="round" stroke-linejoin="round"/></symbol>
  <symbol id="close" viewBox="0 0 24 24"><path d="m7 7 10 10M17 7 7 17" fill="none" stroke="currentColor" stroke-width="2.2" stroke-linecap="round"/></symbol>
  <symbol id="scan" viewBox="0 0 24 24"><path d="M5 8V5h3M16 5h3v3M19 16v3h-3M8 19H5v-3M8 12h8" fill="none" stroke="currentColor" stroke-width="2" stroke-linecap="round"/></symbol>
  <symbol id="gift" viewBox="0 0 24 24"><path d="M4 10h16v10H4V10Zm0 0h16M12 10v10M8.5 6.5C8.5 5.1 10.5 5 12 8c1.5-3 3.5-2.9 3.5-1.5S13.6 9 12 8c-1.6 1-3.5-.1-3.5-1.5Z" fill="none" stroke="currentColor" stroke-width="1.8" stroke-linejoin="round"/></symbol>
  <symbol id="chevron" viewBox="0 0 24 24"><path d="m9 6 6 6-6 6" fill="none" stroke="currentColor" stroke-width="2" stroke-linecap="round" stroke-linejoin="round"/></symbol>
</svg>
