<svg xmlns="http://www.w3.org/2000/svg" style="display:none">
  <symbol id="back" viewBox="0 0 24 24"><path d="M15 5 8 12l7 7" fill="none" stroke="currentColor" stroke-width="2.4" stroke-linecap="round" stroke-linejoin="round"/></symbol>
  <symbol id="search" viewBox="0 0 24 24"><circle cx="10.5" cy="10.5" r="6.5" fill="none" stroke="currentColor" stroke-width="2"/><path d="m15.5 15.5 4.5 4.5" fill="none" stroke="currentColor" stroke-width="2" stroke-linecap="round"/></symbol>
  <symbol id="bill" viewBox="0 0 24 24"><path d="M7 3h10a2 2 0 0 1 2 2v16l-3-2-3 2-3-2-3 2V5a2 2 0 0 1 2-2Z" fill="none" stroke="currentColor" stroke-width="2" stroke-linejoin="round"/><path d="M9 8h6M9 12h6M9 16h4" stroke="currentColor" stroke-width="2" stroke-linecap="round"/></symbol>
  <symbol id="filter" viewBox="0 0 24 24"><path d="M4 5h16l-6.5 7.3V19l-3 1.5v-8.2L4 5Z" fill="none" stroke="currentColor" stroke-width="2" stroke-linejoin="round"/></symbol>
  <symbol id="home" viewBox="0 0 24 24"><path d="M4 11.5 12 5l8 6.5V20a1 1 0 0 1-1 1h-5v-6h-4v6H5a1 1 0 0 1-1-1v-8.5Z" fill="none" stroke="currentColor" stroke-width="2" stroke-linejoin="round"/></symbol>
  <symbol id="message" viewBox="0 0 24 24"><path d="M5 6.5A3.5 3.5 0 0 1 8.5 3h7A3.5 3.5 0 0 1 19 6.5v5A3.5 3.5 0 0 1 15.5 15H11l-5 4v-4.5A3.5 3.5 0 0 1 5 12V6.5Z" fill="none" stroke="currentColor" stroke-width="2" stroke-linejoin="round"/></symbol>
  <symbol id="order" viewBox="0 0 24 24"><rect x="5" y="3" width="14" height="18" rx="2" fill="none" stroke="currentColor" stroke-width="2"/><path d="M8 8h8M8 12h8M8 16h5" stroke="currentColor" stroke-width="2" stroke-linecap="round"/></symbol>
  <symbol id="box" viewBox="0 0 24 24"><path d="m4 8 8-4 8 4-8 4-8-4Z" fill="none" stroke="currentColor" stroke-width="2" stroke-linejoin="round"/><path d="M4 8v8l8 4 8-4V8M12 12v8" fill="none" stroke="currentColor" stroke-width="2" stroke-linejoin="round"/></symbol>
  <symbol id="user" viewBox="0 0 24 24"><circle cx="12" cy="8" r="4" fill="none" stroke="currentColor" stroke-width="2"/><path d="M4 21a8 8 0 0 1 16 0" fill="none" stroke="currentColor" stroke-width="2" stroke-linecap="round"/></symbol>
  <symbol id="plus" viewBox="0 0 24 24"><path d="M12 5v14M5 12h14" stroke="currentColor" stroke-width="2.4" stroke-linecap="round"/></symbol>
  <symbol id="bell" viewBox="0 0 24 24"><path d="M18 10a6 6 0 0 0-12 0c0 7-2 7-2 9h16c0-2-2-2-2-9Z" fill="none" stroke="currentColor" stroke-width="2" stroke-linejoin="round"/><path d="M10 21h4" stroke="currentColor" stroke-width="2" stroke-linecap="round"/></symbol>
  <symbol id="wallet" viewBox="0 0 24 24"><path d="M4 7a3 3 0 0 1 3-3h11v4H7a3 3 0 0 0 0 6h13v6H7a3 3 0 0 1-3-3V7Z" fill="none" stroke="currentColor" stroke-width="2" stroke-linejoin="round"/><circle cx="17" cy="14" r="1.5" fill="currentColor"/></symbol>
  <symbol id="chart" viewBox="0 0 24 24"><path d="M5 19V5M5 19h14" stroke="currentColor" stroke-width="2" stroke-linecap="round"/><rect x="8" y="12" width="2.8" height="5" rx="1" fill="currentColor"/><rect x="12" y="8" width="2.8" height="9" rx="1" fill="currentColor"/><rect x="16" y="10" width="2.8" height="7" rx="1" fill="currentColor"/></symbol>
  <symbol id="edit" viewBox="0 0 24 24"><path d="M4 17.5V20h2.5L18.8 7.7l-2.5-2.5L4 17.5Z" fill="none" stroke="currentColor" stroke-width="2" stroke-linejoin="round"/><path d="m15.5 6 2.5 2.5" stroke="currentColor" stroke-width="2" stroke-linecap="round"/></symbol>
  <symbol id="trash" viewBox="0 0 24 24"><path d="M5 7h14M10 11v6M14 11v6M7 7l1 14h8l1-14M9 7V4h6v3" fill="none" stroke="currentColor" stroke-width="2" stroke-linecap="round" stroke-linejoin="round"/></symbol>
  <symbol id="chevron" viewBox="0 0 24 24"><path d="m9 6 6 6-6 6" fill="none" stroke="currentColor" stroke-width="2.2" stroke-linecap="round" stroke-linejoin="round"/></symbol>
  <symbol id="close" viewBox="0 0 24 24"><path d="M6 6l12 12M18 6 6 18" stroke="currentColor" stroke-width="2.2" stroke-linecap="round"/></symbol>
  <symbol id="camera" viewBox="0 0 24 24"><path d="M8 7 9.5 5h5L16 7h3a2 2 0 0 1 2 2v8a2 2 0 0 1-2 2H5a2 2 0 0 1-2-2V9a2 2 0 0 1 2-2h3Z" fill="none" stroke="currentColor" stroke-width="2" stroke-linejoin="round"/><circle cx="12" cy="13" r="3" fill="none" stroke="currentColor" stroke-width="2"/></symbol>
  <symbol id="clock" viewBox="0 0 24 24"><circle cx="12" cy="12" r="8" fill="none" stroke="currentColor" stroke-width="2"/><path d="M12 8v5l3 2" fill="none" stroke="currentColor" stroke-width="2" stroke-linecap="round"/></symbol>
  <symbol id="shield" viewBox="0 0 24 24"><path d="M12 3 5 6v5c0 5 3 8.5 7 10 4-1.5 7-5 7-10V6l-7-3Z" fill="none" stroke="currentColor" stroke-width="2" stroke-linejoin="round"/></symbol>
  <symbol id="truck" viewBox="0 0 24 24"><path d="M3 7h11v9H3V7Zm11 3h4l3 3v3h-7v-6Z" fill="none" stroke="currentColor" stroke-width="2" stroke-linejoin="round"/><circle cx="7" cy="18" r="2" fill="none" stroke="currentColor" stroke-width="2"/><circle cx="18" cy="18" r="2" fill="none" stroke="currentColor" stroke-width="2"/></symbol>
  <symbol id="store" viewBox="0 0 24 24"><path d="M5 10h14l-1-5H6l-1 5Zm1 0v10h12V10" fill="none" stroke="currentColor" stroke-width="2" stroke-linejoin="round"/><path d="M9 20v-6h6v6" fill="none" stroke="currentColor" stroke-width="2" stroke-linejoin="round"/></symbol>
  <symbol id="star" viewBox="0 0 24 24"><path d="m12 4 2.4 4.9 5.4.8-3.9 3.8.9 5.3-4.8-2.5-4.8 2.5.9-5.3-3.9-3.8 5.4-.8L12 4Z" fill="none" stroke="currentColor" stroke-width="2" stroke-linejoin="round"/></symbol>
  <symbol id="map" viewBox="0 0 24 24"><path d="M12 21s7-5.2 7-11a7 7 0 1 0-14 0c0 5.8 7 11 7 11Z" fill="none" stroke="currentColor" stroke-width="2"/><circle cx="12" cy="10" r="2.5" fill="none" stroke="currentColor" stroke-width="2"/></symbol>
  <symbol id="check" viewBox="0 0 24 24"><path d="m5 12 4 4 10-10" fill="none" stroke="currentColor" stroke-width="2.4" stroke-linecap="round" stroke-linejoin="round"/></symbol>
  <symbol id="eye" viewBox="0 0 24 24"><path d="M3 12s3.4-6 9-6 9 6 9 6-3.4 6-9 6-9-6-9-6Z" fill="none" stroke="currentColor" stroke-width="2"/><circle cx="12" cy="12" r="3" fill="none" stroke="currentColor" stroke-width="2"/></symbol>
</svg>
